#!OML:ASF F:\VICON\USERDATA\INSTALL\rory3\rory3.ASF
:FULLY-SPECIFIED
:DEGREES
133
root -0.8005564121247386 17.168537823715198 26.66804893986485 2.701544256786696 -1.352436583840038 0.2589002799468153
lfemur -22.498425933843052 6.727140264237538 -20.36419887951428
ltibia 85.79281807988305
lfoot -0.6533854995607826 -10.213058954092585
ltoes -10.002680729433541
rfemur -14.786233219545712 4.932142562541942 27.109470583501178
rtibia 94.53359108933711
rfoot 0.6369917244905015 -11.044449255159364
rtoes 4.970829904054731
lowerback 15.480898572789187 2.0711247854537405 0.44815919996160136
upperback -0.01074053117010565 2.8501656181658697 -0.4668683118954776
thorax -9.0832666026324 1.3398340024257587 -1.2068615852185394
lowerneck -20.21161334281333 -5.2027047839091445 -1.5414385850334789
upperneck 12.194232613452156 -7.482067147454809 4.364060393923623
head 7.32414746672845 -3.1326273156460314 0.8097671280066885
lclavicle -2.0490533133479017e-17 4.2580992005087224e-16
lhumerus -46.00581577559616 -9.444199327219788 92.45226788009847
lradius 96.95189677018324
lwrist 35.08963868437843
lhand -28.728620477668127 7.27927387945733
lfingers 7.125019999999998
lthumb -1.793964415776054 35.62142147456569
rclavicle -2.0490533377884084e-17 4.2580991988958657e-16
rhumerus -42.614160060035175 12.07900008888848 -94.49116180284656
rradius 100.25840113952229
rwrist -17.48978452948544
rhand -19.55264610777047 38.81494745405404
rfingers 7.125019999999998
rthumb 6.09074457208656 9.396630181652721
134
root -0.8257169968272325 17.14052524252745 26.800032394633003 2.7842598887680383 -1.2873851297054935 0.03318814338728773
lfemur -23.31744815904085 6.908192918097423 -20.128605168379984
ltibia 86.83804817314501
lfoot -1.226064916372386 -10.010940200230415
ltoes -9.533654733522562
rfemur -14.5013955740167 5.106344546322845 27.31713192605247
rtibia 94.93916698459017
rfoot 0.43894768413576113 -11.030150901292275
rtoes 5.939554751332777
lowerback 15.560712950706009 2.060726567812475 0.5022320607468702
upperback -0.09204727041352351 2.836394404507669 -0.3839490291397102
thorax -9.320854093908348 1.3194491377059414 -1.14140521135352
lowerneck -20.256426785522546 -5.152827555401638 -1.5407048521473896
upperneck 12.145321842052132 -7.410993643982971 4.382643071331243
head 7.347935711346809 -3.091698848216943 0.8105016723078494
lclavicle -2.049053312968631e-17 4.2580992005352374e-16
lhumerus -46.14108852572277 -9.300972683669258 92.38915405824608
lradius 97.66270799909333
lwrist 35.187819186593444
lhand -29.01890853165409 6.98699288610632
lfingers 7.125019999999998
lthumb -1.9049739668148906 35.51325971451458
rclavicle -2.0490533380572698e-17 4.2580991988812934e-16
rhumerus -42.49515873641545 12.158751472482637 -94.58933530693623
rradius 100.30552260486736
rwrist -17.641324415706205
rhand -19.4292125596257 38.750287947107395
rfingers 7.125019999999998
rthumb 6.186158001755821 9.366993648728265
135
root -0.8116286189174627 17.14093489461163 27.062982305508594 2.8680377877279275 -1.273084421929184 -0.10597882202891082
lfemur -23.953662831349295 7.098132699486768 -19.979615695175248
ltibia 87.70660029687325
lfoot -0.8377947298545423 -9.189489996696757
ltoes -8.304756632995366
rfemur -13.965630656179279 5.0941886261042555 27.49017845238939
rtibia 95.2096048937317
rfoot 0.3233398357129751 -10.683203221051434
rtoes 6.696155097560709
lowerback 15.4986507466241 2.046597380549288 0.6581838325497693
upperback -0.12681950506904033 2.852677067651861 -0.33162640846665836
thorax -9.389722723015952 1.3468766478114436 -1.1154233473360564
lowerneck -20.34491128224328 -5.092014114999387 -1.5567412238858158
upperneck 12.134429781503211 -7.3085940714899404 4.389285923304534
head 7.372171699099283 -3.0393225999165425 0.8115807097386325
lclavicle -2.04905331351768e-17 4.2580992005035193e-16
lhumerus -46.330317518035656 -9.20699654866344 92.31532283336034
lradius 98.33309851778131
lwrist 35.196659421761545
lhand -29.23852583028204 6.365201635427454
lfingers 7.125019999999998
lthumb -2.003176110030808 35.33206680968925
rclavicle -2.0490533377945652e-17 4.2580991989015277e-16
rhumerus -42.454131299790475 12.223624000049872 -94.6789093171111
rradius 100.35969622096526
rwrist -17.76110436631478
rhand -19.322931585009783 38.81024001768617
rfingers 7.125019999999998
rthumb 6.271736188900929 9.494705188568066
136
root -0.8157507710656676 17.150013178345674 27.133156683949306 2.9313904425999073 -1.4048503691747616 -0.33326425031080564
lfemur -24.599732834449558 7.379126977069441 -19.69309249921001
ltibia 88.44679554629556
lfoot -1.3487846315479306 -8.96694469742969
ltoes -9.920717046634698
rfemur -13.449175216766761 5.32371162248692 27.74241932135435
rtibia 95.36606685407892
rfoot 0.18696622930704354 -10.468114823430023
rtoes 6.103006152512171
lowerback 15.48560401642385 2.0745962494130468 0.8089912407624986
upperback -0.12895487010601453 2.9216608381281652 -0.24393231249590908
thorax -9.437027206863284 1.379665489361685 -1.0783065884836318
lowerneck -20.463279908179636 -5.027924042024028 -1.5695964992388962
upperneck 12.141862080142623 -7.214918317748239 4.398521421297335
head 7.421069164213665 -2.9827747127758952 0.8140017174762249
lclavicle -2.0490533139503184e-17 4.2580992004754733e-16
lhumerus -46.530281096749654 -9.179962866671287 92.2153847156065
lradius 98.86927499872087
lwrist 35.18674042797736
lhand -29.335430756322513 6.293438151063805
lfingers 7.125019999999998
lthumb -2.19243390544869 34.935711911440514
rclavicle -2.049053337120227e-17 4.2580991989447686e-16
rhumerus -42.45015123368978 12.262699701344006 -94.74780533300795
rradius 100.459123157024
rwrist -18.032699601882253
rhand -19.224059688111712 38.855882051961096
rfingers 7.125019999999998
rthumb 6.349119162600535 9.626334719868012
137
root -0.8283316288196465 17.168404566858186 27.08587626439456 3.0020087485668188 -1.5845174422904695 -0.627258707480714
lfemur -25.32783862340442 7.69145552884061 -19.342164937337266
ltibia 89.05709861445716
lfoot 0.043866487001318344 -8.72454457912962
ltoes -8.985389242949127
rfemur -12.857149867870914 5.687428836297135 28.1223940271274
rtibia 95.49911764748207
rfoot 0.38164187074419775 -10.270099750788368
rtoes 7.34961348875345
lowerback 15.51842124053418 2.109262349832841 1.014908371038981
upperback -0.17057073909770515 3.0261606927707234 -0.11073577535435775
thorax -9.55204195884167 1.4181487139643818 -1.0796644741123178
lowerneck -20.508761573504362 -4.945896704069147 -1.5999032052939504
upperneck 12.152586933784068 -7.0818194515302215 4.397902682221365
head 7.45377908370201 -2.917582693857335 0.8165939813280477
lclavicle -2.0490533140210533e-17 4.2580992004714743e-16
lhumerus -46.73201634076997 -9.14089990977002 92.11641833400526
lradius 99.29627602288254
lwrist 35.16390383750978
lhand -29.054069896592505 6.946798343237157
lfingers 7.125019999999998
lthumb -1.8804926299112117 35.452458165054445
rclavicle -2.0490533375883573e-17 4.2580991989153224e-16
rhumerus -42.49384535808396 12.308334387603407 -94.80877887393291
rradius 100.5518039072991
rwrist -18.233796340681014
rhand -19.116973569140857 39.01353349071265
rfingers 7.125019999999998
rthumb 6.43877966248238 9.91836830491925
